<svg width="16" height="15" viewBox="0 0 16 15" fill="none" xmlns="http://www.w3.org/2000/svg">
<path fill-rule="evenodd" clip-rule="evenodd" d="M7.99985 0.115356C3.93831 0.115356 0.615234 3.43843 0.615234 7.49997C0.615234 11.5615 3.93831 14.8846 7.99985 14.8846C12.0614 14.8846 15.3845 11.5615 15.3845 7.49997C15.3845 3.43843 12.0614 0.115356 7.99985 0.115356ZM7.99985 12.9154C5.01523 12.9154 2.58447 10.4846 2.58447 7.49997C2.58447 4.51536 5.01523 2.08459 7.99985 2.08459C10.9845 2.08459 13.4152 4.51536 13.4152 7.49997C13.4152 10.4846 10.9845 12.9154 7.99985 12.9154ZM7.99985 10.9461C9.90311 10.9461 11.446 9.40323 11.446 7.49997C11.446 5.59671 9.90311 4.05382 7.99985 4.05382C6.09659 4.05382 4.5537 5.59671 4.5537 7.49997C4.5537 9.40323 6.09659 10.9461 7.99985 10.9461Z" fill="#1C8EFF"/>
</svg>
