<svg width="145" height="36" viewBox="0 0 145 36" fill="none" xmlns="http://www.w3.org/2000/svg">
<path fill-rule="evenodd" clip-rule="evenodd" d="M18.3673 36C28.5114 36 36.7347 27.9411 36.7347 18C36.7347 8.05887 28.5114 0 18.3673 0C8.22334 0 0 8.05887 0 18C0 23.9177 2.91392 29.1684 7.41232 32.4492C10.8183 25.1906 14.8452 19.5773 16.8633 17.2527L18.7598 18.8147C16.5072 21.5725 14.4933 24.5114 12.7393 27.6006C18.3468 29.7122 28.62 23.6774 25.9797 8.29999C11.5488 10.3914 7.34963 19.0801 9.49203 24.3555C9.02034 25.1396 8.53669 25.9753 8.04856 26.8588C6.5909 24.7236 6.0994 21.8842 6.80656 18.9619C7.44083 16.3404 10.7606 7.63992 26.8386 5.74734L27.9786 5.6126L28.2029 6.69713C29.7921 14.3569 28.5819 21.043 24.7964 25.546C22.2376 28.5891 18.6039 30.383 15.0768 30.383C13.8659 30.3983 12.6646 30.1712 11.5455 29.7156C11.0408 30.6527 10.6636 31.5231 10.2481 32.4818C10.0608 32.914 9.86576 33.3641 9.64775 33.8463C12.2419 35.2201 15.2117 36 18.3673 36Z" fill="#4AD976"/>
<path fill-rule="evenodd" clip-rule="evenodd" d="M48.3106 16.728V26.16H44.7346V9.64801H48.5026L53.0386 18.312H53.1586V9.64801H56.7346V26.16H53.2786L48.4306 16.728H48.3106ZM66.8266 26.244C66.0506 26.316 65.2946 26.352 64.5586 26.352C62.9106 26.352 61.7066 26.144 60.9466 25.728C60.1866 25.312 59.7026 24.688 59.4946 23.856C59.2866 23.024 59.1826 21.76 59.1826 20.064C59.1826 18.4 59.2866 17.144 59.4946 16.296C59.7026 15.448 60.1666 14.808 60.8866 14.376C61.6066 13.944 62.7426 13.728 64.2946 13.728C65.8306 13.728 66.9346 13.932 67.6066 14.34C68.2786 14.748 68.6946 15.36 68.8546 16.176C69.0146 16.992 69.0946 18.288 69.0946 20.064V21H62.6386C62.6386 21.864 62.6866 22.46 62.7826 22.788C62.8786 23.116 63.1066 23.336 63.4666 23.448C63.8266 23.56 64.4626 23.616 65.3746 23.616C66.0626 23.616 67.1746 23.552 68.7106 23.424V25.968C68.2306 26.08 67.6026 26.172 66.8266 26.244ZM65.8066 18.96H62.6386C62.6386 18.16 62.6746 17.588 62.7466 17.244C62.8186 16.9 62.9626 16.672 63.1786 16.56C63.3946 16.448 63.7506 16.392 64.2466 16.392C64.7106 16.392 65.0466 16.444 65.2546 16.548C65.4626 16.652 65.6066 16.876 65.6866 17.22C65.7666 17.564 65.8066 18.144 65.8066 18.96ZM78.6946 19.584L77.2306 26.16H72.9106L70.2226 13.92H73.6786L75.1426 22.368H75.3586L77.2066 13.92H80.4946L82.3906 22.368H82.5826L84.0466 13.92H87.3826L84.6946 26.16H80.4226L78.9106 19.584H78.6946ZM93.0226 26.16V20.376H95.4226L97.3426 26.16H101.255L98.9506 19.8C99.7346 19.416 100.255 18.812 100.511 17.988C100.767 17.164 100.895 16.168 100.895 15C100.895 13.752 100.779 12.752 100.547 12C100.315 11.248 99.8546 10.668 99.1666 10.26C98.4786 9.85201 97.4546 9.64801 96.0946 9.64801H89.3026V26.16H93.0226ZM93.0226 17.304H94.8946C95.5986 17.304 96.0986 17.248 96.3946 17.136C96.6906 17.024 96.8866 16.82 96.9826 16.524C97.0786 16.228 97.1266 15.728 97.1266 15.024C97.1266 14.304 97.0826 13.796 96.9946 13.5C96.9066 13.204 96.7146 13.004 96.4186 12.9C96.1226 12.796 95.6226 12.744 94.9186 12.744H93.0226V17.304ZM108.071 26.352C109.687 26.352 110.847 26.172 111.551 25.812C112.255 25.452 112.707 24.86 112.907 24.036C113.107 23.212 113.207 21.88 113.207 20.04C113.207 18.184 113.107 16.844 112.907 16.02C112.707 15.196 112.255 14.608 111.551 14.256C110.847 13.904 109.687 13.728 108.071 13.728C106.455 13.728 105.291 13.904 104.579 14.256C103.867 14.608 103.415 15.196 103.223 16.02C103.031 16.844 102.935 18.184 102.935 20.04C102.935 21.896 103.031 23.236 103.223 24.06C103.415 24.884 103.867 25.472 104.579 25.824C105.291 26.176 106.455 26.352 108.071 26.352ZM106.883 23.376C107.099 23.52 107.495 23.592 108.071 23.592C108.647 23.592 109.039 23.52 109.247 23.376C109.455 23.232 109.587 22.944 109.643 22.512C109.694 22.1132 109.722 21.3805 109.726 20.3137L109.727 20.04C109.727 18.824 109.699 17.996 109.643 17.556C109.587 17.116 109.455 16.828 109.247 16.692C109.039 16.556 108.647 16.488 108.071 16.488C107.495 16.488 107.099 16.556 106.883 16.692C106.667 16.828 106.535 17.112 106.487 17.544C106.439 17.976 106.415 18.808 106.415 20.04C106.415 21.272 106.439 22.1 106.487 22.524C106.535 22.948 106.667 23.232 106.883 23.376ZM120.239 26.352C121.855 26.352 123.015 26.172 123.719 25.812C124.423 25.452 124.875 24.86 125.075 24.036C125.275 23.212 125.375 21.88 125.375 20.04C125.375 18.184 125.275 16.844 125.075 16.02C124.875 15.196 124.423 14.608 123.719 14.256C123.015 13.904 121.855 13.728 120.239 13.728C118.623 13.728 117.459 13.904 116.747 14.256C116.035 14.608 115.583 15.196 115.391 16.02C115.199 16.844 115.103 18.184 115.103 20.04C115.103 21.896 115.199 23.236 115.391 24.06C115.583 24.884 116.035 25.472 116.747 25.824C117.459 26.176 118.623 26.352 120.239 26.352ZM119.051 23.376C119.267 23.52 119.663 23.592 120.239 23.592C120.815 23.592 121.207 23.52 121.415 23.376C121.623 23.232 121.755 22.944 121.811 22.512C121.867 22.08 121.895 21.256 121.895 20.04C121.895 18.824 121.867 17.996 121.811 17.556C121.755 17.116 121.623 16.828 121.415 16.692C121.207 16.556 120.815 16.488 120.239 16.488C119.663 16.488 119.267 16.556 119.051 16.692C118.835 16.828 118.703 17.112 118.655 17.544C118.61 17.9428 118.586 18.6824 118.583 19.7628L118.583 20.04C118.583 21.272 118.607 22.1 118.655 22.524C118.703 22.948 118.835 23.232 119.051 23.376ZM131.999 26.16V16.68H134.327V13.92H131.999V10.368H128.495V13.92H126.599V16.68H128.495V26.16H131.999ZM142.547 26.052C141.931 26.252 141.135 26.352 140.159 26.352C139.471 26.352 138.727 26.32 137.927 26.256C137.127 26.192 136.439 26.104 135.863 25.992V23.448C136.919 23.576 138.023 23.64 139.175 23.64C139.799 23.64 140.251 23.612 140.531 23.556C140.811 23.5 140.995 23.4 141.083 23.256C141.171 23.112 141.215 22.88 141.215 22.56C141.215 22.24 141.191 22.016 141.143 21.888C141.095 21.76 140.999 21.668 140.855 21.612C140.711 21.556 140.455 21.504 140.087 21.456L137.639 21.12C136.823 21.008 136.267 20.672 135.971 20.112C135.675 19.552 135.527 18.664 135.527 17.448C135.527 16.456 135.715 15.688 136.091 15.144C136.467 14.6 136.983 14.228 137.639 14.028C138.295 13.828 139.119 13.728 140.111 13.728C140.751 13.728 141.431 13.764 142.151 13.836C142.871 13.908 143.447 14 143.879 14.112V16.632C142.535 16.504 141.511 16.44 140.807 16.44C140.247 16.44 139.835 16.464 139.571 16.512C139.307 16.56 139.123 16.652 139.019 16.788C138.915 16.924 138.863 17.144 138.863 17.448C138.863 17.752 138.883 17.964 138.923 18.084C138.963 18.204 139.043 18.292 139.163 18.348C139.283 18.404 139.503 18.456 139.823 18.504L142.151 18.816C142.679 18.896 143.107 19.032 143.435 19.224C143.763 19.416 144.023 19.76 144.215 20.256C144.407 20.752 144.503 21.472 144.503 22.416C144.503 23.504 144.331 24.332 143.987 24.9C143.643 25.468 143.163 25.852 142.547 26.052Z" fill="#084059"/>
</svg>
